REM DIRINDEX 1\2\6,1\2\7,1\2\8,1\3\9,1\3\10,1\3\11,1\4\12,1\4\13,1\4\14,1\5\15,1\5\16,1\5\17,1\5\18
REM DIRNAME folder01,folder02,folder03,folder04,folder05,folder06,folder07,folder08,folder09,folder10,folder11,folder12,folder13,folder14,folder15,folder16,folder17,folder18
TITLE ""
FILE "" MP3
  TRACK 01 AUDIO
    TITLE "15:cjc019_5373"
    INDEX 01 00:00:00
  TRACK 02 AUDIO
    TITLE "0:"
    INDEX 01 00:08:73
  TRACK 03 AUDIO
    TITLE "16:cjc019_5374"
    INDEX 01 00:10:12
  TRACK 04 AUDIO
    TITLE "0:"
    INDEX 01 00:11:15
  TRACK 05 AUDIO
    TITLE "18:cjc019_5375"
    INDEX 01 00:11:74
  TRACK 06 AUDIO
    TITLE "0:"
    INDEX 01 00:13:04
  TRACK 07 AUDIO
    TITLE "17:cjc019_5376"
    INDEX 01 00:13:53
  TRACK 08 AUDIO
    TITLE "0:"
    INDEX 01 00:14:58
  TRACK 09 AUDIO
    TITLE "16:cjc019_5377"
    INDEX 01 00:16:49
  TRACK 10 AUDIO
    TITLE "0:"
    INDEX 01 00:17:61
  TRACK 11 AUDIO
    TITLE "18:cjc019_5378"
    INDEX 01 00:18:42
  TRACK 12 AUDIO
    TITLE "0:"
    INDEX 01 00:19:56
  TRACK 13 AUDIO
    TITLE "17:cjc019_5379"
    INDEX 01 00:20:37
  TRACK 14 AUDIO
    TITLE "0:"
    INDEX 01 00:21:53
  TRACK 15 AUDIO
    TITLE "16:cjc019_5380"
    INDEX 01 00:23:34
  TRACK 16 AUDIO
    TITLE "0:"
    INDEX 01 00:24:57
  TRACK 17 AUDIO
    TITLE "18:cjc019_5381"
    INDEX 01 00:25:45
  TRACK 18 AUDIO
    TITLE "0:"
    INDEX 01 00:28:39
  TRACK 19 AUDIO
    TITLE "17:cjc019_5382"
    INDEX 01 00:29:19
  TRACK 20 AUDIO
    TITLE "0:"
    INDEX 01 00:30:48
  TRACK 21 AUDIO
    TITLE "16:cjc019_5383"
    INDEX 01 00:32:29
  TRACK 22 AUDIO
    TITLE "0:"
    INDEX 01 00:33:46
  TRACK 23 AUDIO
    TITLE "18:cjc019_5384"
    INDEX 01 00:34:32
  TRACK 24 AUDIO
    TITLE "0:"
    INDEX 01 00:35:51
  TRACK 25 AUDIO
    TITLE "17:cjc019_5385"
    INDEX 01 00:36:31
  TRACK 26 AUDIO
    TITLE "0:"
    INDEX 01 00:37:48
  TRACK 27 AUDIO
    TITLE "16:cjc019_5386"
    INDEX 01 00:39:37
  TRACK 28 AUDIO
    TITLE "0:"
    INDEX 01 00:40:50
  TRACK 29 AUDIO
    TITLE "18:cjc019_5387"
    INDEX 01 00:41:38
  TRACK 30 AUDIO
    TITLE "0:"
    INDEX 01 00:44:38
  TRACK 31 AUDIO
    TITLE "17:cjc019_5388"
    INDEX 01 00:45:16
  TRACK 32 AUDIO
    TITLE "0:"
    INDEX 01 00:46:31
  TRACK 33 AUDIO
    TITLE "16:cjc019_5389"
    INDEX 01 00:48:12
  TRACK 34 AUDIO
    TITLE "0:"
    INDEX 01 00:49:16
  TRACK 35 AUDIO
    TITLE "18:cjc019_5390"
    INDEX 01 00:49:74
  TRACK 36 AUDIO
    TITLE "0:"
    INDEX 01 00:52:59
  TRACK 37 AUDIO
    TITLE "17:cjc019_5391"
    INDEX 01 00:53:33
  TRACK 38 AUDIO
    TITLE "0:"
    INDEX 01 00:54:40
  TRACK 39 AUDIO
    TITLE "16:cjc019_5392"
    INDEX 01 00:56:25
  TRACK 40 AUDIO
    TITLE "0:"
    INDEX 01 00:57:50
  TRACK 41 AUDIO
    TITLE "18:cjc019_5393"
    INDEX 01 00:58:36
  TRACK 42 AUDIO
    TITLE "0:"
    INDEX 01 01:03:04
  TRACK 43 AUDIO
    TITLE "17:cjc019_5394"
    INDEX 01 01:03:47
  TRACK 44 AUDIO
    TITLE "0:"
    INDEX 01 01:04:72
  TRACK 45 AUDIO
    TITLE "16:cjc019_5395"
    INDEX 01 01:06:53
  TRACK 46 AUDIO
    TITLE "0:"
    INDEX 01 01:07:64
  TRACK 47 AUDIO
    TITLE "18:cjc019_5396"
    INDEX 01 01:08:46
  TRACK 48 AUDIO
    TITLE "0:"
    INDEX 01 01:11:60
  TRACK 49 AUDIO
    TITLE "17:cjc019_5397"
    INDEX 01 01:12:38
  TRACK 50 AUDIO
    TITLE "0:"
    INDEX 01 01:13:53
  TRACK 51 AUDIO
    TITLE "16:cjc019_5398"
    INDEX 01 01:15:37
  TRACK 52 AUDIO
    TITLE "0:"
    INDEX 01 01:16:56
  TRACK 53 AUDIO
    TITLE "18:cjc019_5399"
    INDEX 01 01:17:32
  TRACK 54 AUDIO
    TITLE "0:"
    INDEX 01 01:18:56
  TRACK 55 AUDIO
    TITLE "17:cjc019_5400"
    INDEX 01 01:19:32
  TRACK 56 AUDIO
    TITLE "0:"
    INDEX 01 01:20:59
  TRACK 57 AUDIO
    TITLE "16:cjc019_5401"
    INDEX 01 01:22:37
  TRACK 58 AUDIO
    TITLE "0:"
    INDEX 01 01:23:54
  TRACK 59 AUDIO
    TITLE "18:cjc019_5402"
    INDEX 01 01:24:36
  TRACK 60 AUDIO
    TITLE "0:"
    INDEX 01 01:28:27
  TRACK 61 AUDIO
    TITLE "17:cjc019_5403"
    INDEX 01 01:29:03
  TRACK 62 AUDIO
    TITLE "0:"
    INDEX 01 01:30:20
  TRACK 63 AUDIO
    TITLE "16:cjc019_5404"
    INDEX 01 01:32:02
  TRACK 64 AUDIO
    TITLE "0:"
    INDEX 01 01:33:13
  TRACK 65 AUDIO
    TITLE "18:cjc019_5405"
    INDEX 01 01:33:68
  TRACK 66 AUDIO
    TITLE "0:"
    INDEX 01 01:36:39
  TRACK 67 AUDIO
    TITLE "17:cjc019_5406"
    INDEX 01 01:37:21
  TRACK 68 AUDIO
    TITLE "0:"
    INDEX 01 01:38:34
  TRACK 69 AUDIO
    TITLE "16:cjc019_5407"
    INDEX 01 01:40:15
  TRACK 70 AUDIO
    TITLE "0:"
    INDEX 01 01:41:36
  TRACK 71 AUDIO
    TITLE "18:cjc019_5408"
    INDEX 01 01:42:22
  TRACK 72 AUDIO
    TITLE "0:"
    INDEX 01 01:44:62
  TRACK 73 AUDIO
    TITLE "17:cjc019_5409"
    INDEX 01 01:45:44
  TRACK 74 AUDIO
    TITLE "0:"
    INDEX 01 01:46:65
  TRACK 75 AUDIO
    TITLE "16:cjc019_5410"
    INDEX 01 01:48:48
  TRACK 76 AUDIO
    TITLE "0:"
    INDEX 01 01:50:07
  TRACK 77 AUDIO
    TITLE "18:cjc019_5411"
    INDEX 01 01:50:62
  TRACK 78 AUDIO
    TITLE "0:"
    INDEX 01 01:52:22
  TRACK 79 AUDIO
    TITLE "17:cjc019_5412"
    INDEX 01 01:52:71
  TRACK 80 AUDIO
    TITLE "0:"
    INDEX 01 01:54:29
  TRACK 81 AUDIO
    TITLE "16:cjc019_5413"
    INDEX 01 01:56:16
  TRACK 82 AUDIO
    TITLE "0:"
    INDEX 01 01:57:33
  TRACK 83 AUDIO
    TITLE "18:cjc019_5414"
    INDEX 01 01:58:13
  TRACK 84 AUDIO
    TITLE "0:"
    INDEX 01 02:02:26
  TRACK 85 AUDIO
    TITLE "17:cjc019_5415"
    INDEX 01 02:03:04
  TRACK 86 AUDIO
    TITLE "0:"
    INDEX 01 02:04:25
  TRACK 87 AUDIO
    TITLE "16:cjc019_5416"
    INDEX 01 02:06:01
  TRACK 88 AUDIO
    TITLE "0:"
    INDEX 01 02:07:20
  TRACK 89 AUDIO
    TITLE "18:cjc019_5417"
    INDEX 01 02:08:07
  TRACK 90 AUDIO
    TITLE "0:"
    INDEX 01 02:11:08
  TRACK 91 AUDIO
    TITLE "17:cjc019_5418"
    INDEX 01 02:11:63
  TRACK 92 AUDIO
    TITLE "0:"
    INDEX 01 02:13:10
  TRACK 93 AUDIO
    TITLE "16:cjc019_5419"
    INDEX 01 02:14:65
  TRACK 94 AUDIO
    TITLE "0:"
    INDEX 01 02:16:21
  TRACK 95 AUDIO
    TITLE "18:cjc019_5420"
    INDEX 01 02:17:00
  TRACK 96 AUDIO
    TITLE "0:"
    INDEX 01 02:18:25
  TRACK 97 AUDIO
    TITLE "17:cjc019_5421"
    INDEX 01 02:19:03
  TRACK 98 AUDIO
    TITLE "0:"
    INDEX 01 02:20:38
  TRACK 99 AUDIO
    TITLE "16:cjc019_5422"
    INDEX 01 02:22:15
  TRACK 100 AUDIO
    TITLE "0:"
    INDEX 01 02:23:32
  TRACK 101 AUDIO
    TITLE "18:cjc019_5423"
    INDEX 01 02:24:16
  TRACK 102 AUDIO
    TITLE "0:"
    INDEX 01 02:27:34
  TRACK 103 AUDIO
    TITLE "17:cjc019_5424"
    INDEX 01 02:28:12
  TRACK 104 AUDIO
    TITLE "0:"
    INDEX 01 02:29:31
